<?xml version="1.0" encoding="UTF-8" standalone="no"?>
<!-- Created with Inkscape (http://www.inkscape.org/) -->

<svg
   width="64"
   height="36"
   viewBox="0 0 16.933329 9.525004"
   version="1.1"
   id="svg5"
   inkscape:version="1.2.2 (b0a8486541, 2022-12-01)"
   sodipodi:docname="variable_representation.svg"
   xml:space="preserve"
   xmlns:inkscape="http://www.inkscape.org/namespaces/inkscape"
   xmlns:sodipodi="http://sodipodi.sourceforge.net/DTD/sodipodi-0.dtd"
   xmlns="http://www.w3.org/2000/svg"
   xmlns:svg="http://www.w3.org/2000/svg"><sodipodi:namedview
     id="namedview7"
     pagecolor="#ffffff"
     bordercolor="#000000"
     borderopacity="0.25"
     inkscape:showpageshadow="2"
     inkscape:pageopacity="0.0"
     inkscape:pagecheckerboard="0"
     inkscape:deskcolor="#d1d1d1"
     inkscape:document-units="mm"
     showgrid="false"
     inkscape:zoom="45.254834"
     inkscape:cx="19.456485"
     inkscape:cy="24.594058"
     inkscape:window-width="1881"
     inkscape:window-height="1048"
     inkscape:window-x="39"
     inkscape:window-y="0"
     inkscape:window-maximized="1"
     inkscape:current-layer="layer1" /><defs
     id="defs2" /><g
     inkscape:label="Layer 1"
     id="layer1"><g
       inkscape:groupmode="layer"
       id="layer2"
       inkscape:label="box"><path
         style="fill:#000000;stroke-width:0.0110981"
         d="M 6.1641982,8.4955803 C 5.9749757,8.4480171 5.5030573,8.3308133 5.1154909,8.2351276 4.6792721,8.1274301 4.4028183,8.0540342 4.3898083,8.0424657 4.3391222,7.9973955 4.3385611,7.9893198 4.3385611,7.3048971 V 6.657441 L 3.9806475,6.5716364 C 3.783795,6.5244439 3.6114855,6.4811329 3.5977376,6.4753898 3.5643563,6.461445 3.5284928,6.4005801 3.5284415,6.3577854 3.5283933,6.3176164 3.5481308,6.2896657 3.6568497,6.1759446 3.9834885,5.8342768 4.349751,5.4360224 4.3471944,5.4253004 4.3454981,5.4181862 4.1663668,5.2232569 3.9491249,4.9921239 3.731883,4.760991 3.5483482,4.5610609 3.5412698,4.5478347 c -0.01901,-0.035521 -0.015616,-0.081907 0.00894,-0.1221809 0.016596,-0.027219 0.035589,-0.039606 0.08042,-0.052448 0.032281,-0.00925 0.5056681,-0.1244813 1.051972,-0.2560749 0.9164166,-0.2207462 0.9960026,-0.2381578 1.0284676,-0.225004 0.022416,0.00908 0.1786168,0.167325 0.4303583,0.4359848 0.2173439,0.2319502 0.3991671,0.423106 0.4040518,0.4247905 0.00488,0.00168 0.1807901,-0.1804201 0.3909009,-0.4046769 0.4475405,-0.477672 0.4242202,-0.4543962 0.4627637,-0.4618803 0.01866,-0.00362 0.3213113,0.064172 0.7904566,0.1770653 0.4181208,0.1006151 0.875085,0.2102193 1.0154759,0.243565 0.140391,0.033346 0.2695808,0.066327 0.2870886,0.073292 0.041548,0.016529 0.073506,0.070229 0.073558,0.1235997 3.33e-5,0.036657 -0.00892,0.052091 -0.064405,0.110981 -0.5511226,0.5849497 -0.7578541,0.8087374 -0.7548709,0.8171509 0.00198,0.0056 0.1808997,0.1985233 0.3975901,0.4287274 0.2166903,0.230204 0.4000481,0.4290131 0.4074618,0.4417978 0.024499,0.042249 0.017284,0.1027523 -0.016803,0.1409022 -0.029463,0.032975 -0.049866,0.039286 -0.3948523,0.1221369 -0.2000812,0.048051 -0.3683866,0.09021 -0.3740121,0.093686 -0.00605,0.00374 -0.010228,0.273842 -0.010228,0.6615162 0,0.7250391 0.00257,0.6985878 -0.071358,0.7351781 -0.01874,0.00928 -0.2712954,0.07496 -0.5612332,0.1459661 C 7.8330747,8.2729155 7.3651555,8.3879856 7.0831921,8.4576214 6.8012287,8.5272571 6.5565157,8.583743 6.5393853,8.5831454 6.5222549,8.5825479 6.3534208,8.5431435 6.1641982,8.4955803 Z M 7.1145831,8.3234384 C 7.4220091,8.2471455 7.8895363,8.1310898 8.1535323,8.0655368 L 8.633525,7.9463496 V 7.3179451 6.6895407 L 8.5253185,6.7157963 C 7.8598767,6.877261 7.4400444,6.9750077 7.4119782,6.9750077 c -0.025898,0 -0.047128,-0.012783 -0.08755,-0.052716 C 7.2831262,6.8814902 6.5942488,6.1477735 6.5577065,6.1056642 6.553296,6.1005819 6.3957476,6.2603945 6.2075989,6.4608034 6.0194503,6.6612124 5.8317897,6.8595491 5.7905754,6.9015515 l -0.074935,0.076368 -0.053173,-0.0059 C 5.6332214,6.9687721 5.353363,6.9040058 5.0405593,6.8280929 4.7277556,6.7521801 4.4693086,6.6925862 4.4662327,6.6956621 c -0.00308,0.00308 -0.00559,0.2861415 -0.00559,0.6290347 v 0.6234421 l 0.1026574,0.024962 c 0.315591,0.07674 1.689387,0.4174239 1.8117645,0.4492951 0.079351,0.020666 0.1524403,0.038065 0.1624199,0.038665 0.00998,6.005e-4 0.269675,-0.06133 0.5771011,-0.1376231 z M 5.6832807,6.8429615 C 5.6853153,6.8374796 5.8642721,6.6446379 6.0809625,6.4144244 6.2976529,6.1842109 6.4764684,5.9918511 6.4783304,5.9869584 6.4829789,5.9747434 6.5492309,5.991409 5.4206257,5.7208952 5.3412743,5.7018755 5.1315202,5.6514487 4.9545056,5.6088355 4.5833849,5.5194948 4.5058859,5.5010718 4.4828087,5.4967049 4.4730816,5.4948642 4.3618093,5.6045001 4.2157512,5.7598348 4.0780408,5.9062919 3.8948843,6.1010324 3.8087367,6.1925918 3.6822792,6.3269933 3.6556897,6.360665 3.6707136,6.3673778 c 0.010235,0.00457 0.1209888,0.0329 0.2461198,0.062949 1.1497681,0.2761052 1.5515796,0.3730517 1.6369694,0.3949574 0.1163018,0.029836 0.1245472,0.030962 0.1294779,0.017677 z M 7.5681076,6.8189893 C 7.7415357,6.7767005 8.7989934,6.5221672 9.2106261,6.4236301 9.3296532,6.3951373 9.430467,6.3689535 9.4346567,6.3654441 9.4421395,6.3591763 9.3762887,6.287065 8.8789332,5.7568876 L 8.6304761,5.4920341 8.4350093,5.5384976 c -0.1075067,0.025555 -0.445174,0.1067257 -0.7503717,0.1803796 -0.3051977,0.073654 -0.662279,0.1593691 -0.793514,0.1904783 -0.131235,0.031109 -0.2483509,0.060515 -0.2602574,0.065346 -0.018807,0.00763 0.00304,0.034901 0.1664715,0.2078125 0.1034658,0.1094661 0.2875731,0.3049806 0.4091273,0.4344768 0.1993663,0.2123925 0.2238177,0.2348035 0.2497072,0.2288714 0.015785,-0.00362 0.066156,-0.015709 0.1119354,-0.026873 z M 7.0797913,5.7379904 C 7.3514172,5.672232 7.7384634,5.5790139 7.9398939,5.530839 8.1413244,5.4826642 8.3160402,5.4390828 8.3281513,5.4339915 8.3459122,5.4265251 8.3383988,5.4220133 8.2893079,5.4106659 8.255833,5.4029282 8.0461582,5.3526615 7.8233638,5.2989621 7.6005695,5.2452628 7.2884355,5.1703783 7.1297327,5.1325524 6.9710299,5.0947264 6.7750098,5.0473863 6.6941324,5.0273522 L 6.5470826,4.9909263 6.4000328,5.0273522 C 6.3191554,5.0473863 6.1231353,5.0948344 5.9644325,5.1327922 5.1872014,5.318687 4.754375,5.4236538 4.750845,5.4271052 c -0.00495,0.00484 0.014356,0.00978 0.4089754,0.1045215 0.1800666,0.043233 0.5621186,0.1357962 0.8490045,0.2056965 0.2868858,0.069901 0.5340959,0.1255474 0.5493558,0.1236598 0.01526,-0.00189 0.2499847,-0.057234 0.5216106,-0.1229926 z M 5.1178883,5.2103144 C 5.4736164,5.1248063 5.9256835,5.0161837 6.1224816,4.9689307 6.3192798,4.9216777 6.480341,4.8795271 6.4803952,4.8752627 6.4806083,4.8585196 5.6674758,4.0024881 5.655429,4.0067734 5.6483662,4.0092857 5.4977575,4.0461695 5.3207428,4.0887373 5.1437281,4.1313052 4.7691673,4.2215488 4.4883855,4.2892787 4.2076036,4.3570085 3.9041225,4.4301739 3.813983,4.4518684 l -0.1638899,0.039445 0.041811,0.048101 c 0.045668,0.052539 0.7727486,0.8259043 0.7767456,0.8261919 0.00135,9.99e-5 0.2935106,-0.069784 0.6492386,-0.1552919 z M 9.0228695,4.9477746 C 9.2390587,4.7178697 9.4223677,4.5207424 9.4302228,4.5097139 9.4426651,4.4922447 9.4412357,4.488901 9.4191247,4.4837538 9.4051656,4.4805043 9.2189496,4.4356887 9.0053113,4.3841637 8.2973192,4.213411 7.6975361,4.069089 7.5603575,4.0364738 L 7.4249793,4.0042865 7.3317161,4.1051593 C 7.2804215,4.1606394 7.0979074,4.3556371 6.9261295,4.5384876 6.7543515,4.721338 6.6175211,4.8743382 6.6220621,4.8784881 c 0.00454,0.00415 0.3253844,0.083635 0.7129854,0.1766334 0.3876011,0.092998 0.8320799,0.2003664 0.9877308,0.2385952 0.1556508,0.038229 0.2884056,0.070083 0.2950106,0.070787 0.0066,7.036e-4 0.1888912,-0.1868241 0.4050806,-0.4167291 z"
         id="path328" /><path
         style="fill:#000000;stroke:#000000;stroke-width:0.1;stroke-linecap:round;stroke-linejoin:round;stroke-dasharray:none;stroke-opacity:1"
         d="M 6.5575613,5.9244084 6.5368656,8.5244862"
         id="path447" /></g><text
       xml:space="preserve"
       style="font-style:normal;font-variant:normal;font-weight:normal;font-stretch:normal;font-size:0.426794px;font-family:'JetBrains Mono';-inkscape-font-specification:'JetBrains Mono';fill:#000000;fill-opacity:1;stroke:#000000;stroke-width:0.0302453;stroke-linecap:round;stroke-linejoin:round;stroke-dasharray:none;stroke-opacity:0;image-rendering:auto"
       x="4.4613285"
       y="5.7805214"
       id="text1700"
       transform="skewY(15.761762)"><tspan
         id="tspan1698"
         style="font-style:normal;font-variant:normal;font-weight:normal;font-stretch:normal;font-family:'JetBrains Mono';-inkscape-font-specification:'JetBrains Mono';fill:#000000;fill-opacity:1;stroke:#000000;stroke-width:0.0302453;stroke-dasharray:none;stroke-opacity:0"
         x="4.4613285"
         y="5.7805214"
         sodipodi:role="line">variable</tspan></text><path
       style="fill:#ffffff;fill-opacity:0;stroke:#000000;stroke-width:0.4;stroke-linecap:round;stroke-linejoin:round;stroke-dasharray:none;stroke-opacity:1"
       d="M 12.316627,1.8393018 C 10.542014,1.5382525 9.6168208,2.5363188 8.7859475,3.6786383 L 8.7225222,2.980959"
       id="path3448"
       sodipodi:nodetypes="cc" /><path
       style="fill:#ffffff;fill-opacity:0;stroke:#000000;stroke-width:0.4;stroke-linecap:round;stroke-linejoin:round;stroke-dasharray:none;stroke-opacity:1"
       d="M 8.7859473,3.6786383 9.3990596,3.5306457"
       id="path3450" /><text
       xml:space="preserve"
       style="font-style:normal;font-variant:normal;font-weight:normal;font-stretch:normal;font-size:0.84195px;font-family:'JetBrains Mono';-inkscape-font-specification:'JetBrains Mono';fill:#000000;fill-opacity:1;stroke:#000000;stroke-width:0.238663;stroke-linecap:round;stroke-linejoin:round;stroke-dasharray:none;stroke-opacity:0"
       x="12.515562"
       y="2.1640873"
       id="text3556"><tspan
         sodipodi:role="line"
         id="tspan3554"
         style="fill:#000000;fill-opacity:1;stroke:#000000;stroke-width:0.238663;stroke-opacity:0"
         x="12.515562"
         y="2.1640873">&quot;value&quot;</tspan></text></g></svg>
