<?xml version="1.0" encoding="UTF-8" standalone="no"?>
<!-- Created with Inkscape (http://www.inkscape.org/) -->
<!-- MIT License

Copyright (c) Ollama

Permission is hereby granted, free of charge, to any person obtaining a copy
of this software and associated documentation files (the "Software"), to deal
in the Software without restriction, including without limitation the rights
to use, copy, modify, merge, publish, distribute, sublicense, and/or sell
copies of the Software, and to permit persons to whom the Software is
furnished to do so, subject to the following conditions:

The above copyright notice and this permission notice shall be included in all
copies or substantial portions of the Software.

THE SOFTWARE IS PROVIDED "AS IS", WITHOUT WARRANTY OF ANY KIND, EXPRESS OR
IMPLIED, INCLUDING BUT NOT LIMITED TO THE WARRANTIES OF MERCHANTABILITY,
FITNESS FOR A PARTICULAR PURPOSE AND NONINFRINGEMENT. IN NO EVENT SHALL THE
AUTHORS OR COPYRIGHT HOLDERS BE LIABLE FOR ANY CLAIM, DAMAGES OR OTHER
LIABILITY, WHETHER IN AN ACTION OF CONTRACT, TORT OR OTHERWISE, ARISING FROM,
OUT OF OR IN CONNECTION WITH THE SOFTWARE OR THE USE OR OTHER DEALINGS IN THE
SOFTWARE. -->

<svg
   width="48"
   height="48"
   viewBox="0 0 12.7 12.7"
   version="1.1"
   id="svg5"
   xml:space="preserve"
   inkscape:version="1.2.2 (b0a8486541, 2022-12-01)"
   sodipodi:docname="ollama-icon.svg"
   xmlns:inkscape="http://www.inkscape.org/namespaces/inkscape"
   xmlns:sodipodi="http://sodipodi.sourceforge.net/DTD/sodipodi-0.dtd"
   xmlns="http://www.w3.org/2000/svg"
   xmlns:svg="http://www.w3.org/2000/svg"><sodipodi:namedview
     id="namedview7"
     pagecolor="#ffffff"
     bordercolor="#000000"
     borderopacity="0.25"
     inkscape:showpageshadow="2"
     inkscape:pageopacity="0.0"
     inkscape:pagecheckerboard="0"
     inkscape:deskcolor="#d1d1d1"
     inkscape:document-units="mm"
     showgrid="false"
     inkscape:zoom="17.698462"
     inkscape:cx="18.899947"
     inkscape:cy="24.352398"
     inkscape:window-width="1881"
     inkscape:window-height="1048"
     inkscape:window-x="39"
     inkscape:window-y="0"
     inkscape:window-maximized="1"
     inkscape:current-layer="layer1" /><defs
     id="defs2" /><g
     inkscape:label="Layer 1"
     inkscape:groupmode="layer"
     id="layer1"><path
       style="fill:#000000;stroke-width:0.0496094"
       d="m 2.1192606,12.092284 c -0.031688,-0.08159 -0.04466,-0.375694 -0.032275,-0.731738 0.017569,-0.505069 0.04136,-0.646116 0.156944,-0.93045 L 2.3801656,10.094958 2.2496954,9.8282863 C 2.0517352,9.4236708 1.9774249,9.0766667 1.977584,8.5576172 1.9777384,8.0541516 2.0553905,7.6370394 2.2208054,7.2511419 L 2.3232579,7.01213 2.2049633,6.8050882 C 1.6739215,5.8756487 1.8375956,4.6684602 2.6067994,3.8413206 L 2.9035063,3.522266 2.8817343,2.8277348 C 2.8572353,2.0461871 2.9257883,1.5995237 3.1430888,1.124878 3.3554339,0.66105515 3.5928039,0.47128975 3.9606364,0.47128975 c 0.5614157,0 0.8638157,0.4471262 1.1136435,1.64662435 l 0.027813,0.1335387 0.2137244,-0.09454 c 0.7192842,-0.3181736 1.4450086,-0.3166619 2.0741863,0.00432 0.110952,0.056604 0.212224,0.092423 0.225049,0.079599 0.01282,-0.012825 0.0552,-0.1762325 0.09416,-0.3631287 0.194076,-0.93089455 0.54859,-1.40641285 1.048525,-1.40641285 0.383413,0 0.61744,0.1837215 0.832552,0.65358825 0.2173,0.4746457 0.285855,0.9213091 0.261355,1.7028568 l -0.02177,0.6945312 0.2969934,0.3193595 c 0.163346,0.1756472 0.3486,0.4323757 0.411676,0.5705072 0.357946,0.783882 0.354568,1.690719 -0.0088,2.3583192 l -0.124878,0.2294424 0.105074,0.2451298 c 0.16801,0.3919498 0.245689,0.8066897 0.245844,1.3125926 1.49e-4,0.5190495 -0.07415,0.8660537 -0.272111,1.2706691 l -0.130471,0.2666717 0.136236,0.335138 c 0.115584,0.284334 0.139375,0.425381 0.156944,0.93045 0.01239,0.356044 -5.85e-4,0.650145 -0.03228,0.731738 -0.05041,0.129807 -0.06896,0.136426 -0.382302,0.136426 H 9.9024996 l 0.03001,-0.16123 C 10.055638,11.405866 10.0074,10.950638 9.7647806,10.484452 9.5935246,10.155395 9.5776216,9.9597312 9.7085106,9.7921392 10.189776,9.1759161 10.231047,8.2365999 9.8143866,7.3824634 9.6535706,7.0527943 9.6249926,6.9532154 9.6627216,6.8539817 c 0.02557,-0.06725 0.07061,-0.1371838 0.1001,-0.1554078 C 9.8642586,6.6358791 10.06938,6.1659677 10.119495,5.881459 10.216964,5.32812 9.9994696,4.6692684 9.5819646,4.2531249 9.2407666,3.9130382 8.9372126,3.7819983 8.4611546,3.7692867 8.2488516,3.7636167 8.0651506,3.7489817 8.0529316,3.7367617 8.0407116,3.7245417 7.9412386,3.5761077 7.8318786,3.4069079 7.3637816,2.6826708 6.4186586,2.4055868 5.6386663,2.7639185 5.2853024,2.9262554 4.9577421,3.2250577 4.8109633,3.5189538 4.7487323,3.6435586 4.6826396,3.7475455 4.6640899,3.7500358 c -0.01855,0.00249 -0.2011584,0.00807 -0.405797,0.012402 C 3.7754329,3.7726568 3.420682,3.9392063 3.0741427,4.3183756 2.7267715,4.6984549 2.6010519,5.0393284 2.5992983,5.605859 c -0.00112,0.3627184 0.020276,0.4946843 0.1140578,0.7033963 0.063492,0.1413014 0.160586,0.2975709 0.2157645,0.3472656 0.2042206,0.1839233 0.2027478,0.2895714 -0.01012,0.7259419 -0.4166595,0.8541365 -0.3753877,1.7934527 0.1058765,2.4096765 0.1308882,0.167592 0.1149848,0.3632557 -0.056271,0.6923127 -0.2426234,0.466186 -0.290857,0.921414 -0.1677295,1.583027 l 0.030005,0.16123 H 2.5015625 c -0.3133403,0 -0.3318903,-0.0066 -0.3823019,-0.136425 z M 4.1449264,3.1017698 C 4.306804,3.1008536 4.3667962,3.0767148 4.4105956,2.9948751 4.4786826,2.8676536 4.4350586,2.2743443 4.3253536,1.8355474 4.2485096,1.5281885 4.0400434,1.1162115 3.9613589,1.1162115 c -0.2314946,0 -0.5100083,1.198569 -0.4239362,1.8243875 l 0.033976,0.2470349 0.1822169,-0.04234 C 3.8538349,3.1220069 4.0299249,3.1024209 4.1449264,3.1017698 Z M 9.1966196,2.3929309 c -0.04306,-0.610354 -0.264669,-1.2767194 -0.424596,-1.2767194 -0.07868,0 -0.287151,0.411977 -0.363995,0.7193359 -0.109705,0.4387969 -0.153329,1.0321062 -0.08524,1.1593277 0.04459,0.083325 0.106108,0.1069542 0.290474,0.1115808 0.128644,0.00323 0.300872,0.020441 0.382727,0.038251 0.138584,0.030153 0.151667,0.020358 0.190067,-0.1422953 0.02268,-0.096073 0.02743,-0.370339 0.01056,-0.6094807 z M 5.5642186,8.1412695 C 4.474329,7.7882214 4.208809,6.6214676 5.04688,5.8679697 5.4262679,5.5268671 5.7563109,5.4131247 6.366691,5.4131247 c 0.6103803,0 0.9404226,0.1137424 1.3198116,0.454845 0.780207,0.7014735 0.612482,1.7718691 -0.346357,2.2103902 C 7.1488467,8.16585 6.9998053,8.1853201 6.4411051,8.1958056 5.9820482,8.2044256 5.7062142,8.1872656 5.5642186,8.1412695 Z M 7.0414172,7.7074068 C 7.7616396,7.4662665 7.9524976,6.7400146 7.4268056,6.24092 7.1444856,5.9728841 6.8214062,5.8553902 6.366691,5.8553902 c -0.4547151,0 -0.7777943,0.1174939 -1.0601146,0.3855298 -0.5183832,0.4921562 -0.3371541,1.2174472 0.3655835,1.463091 0.202515,0.07079 1.1608703,0.073166 1.3692573,0.00339 z M 6.1935929,7.2436132 C 6.1576709,7.2003292 6.1456919,7.1167636 6.1646059,7.0414015 6.1899069,6.9405947 6.1697559,6.8916496 6.0709269,6.8139147 6.0016729,6.7594397 5.9450111,6.6726262 5.9450111,6.6209963 c 0,-0.1292126 0.1702011,-0.2151846 0.2944081,-0.1487111 0.065635,0.035127 0.1381068,0.035342 0.2292764,6.797e-4 0.094706,-0.036007 0.1531059,-0.03425 0.2016857,0.00607 0.1012532,0.084032 0.0835,0.2810651 -0.030839,0.3422571 -0.040854,0.021864 -0.067079,0.051847 -0.082241,0.098732 -0.011892,0.036773 -0.016978,0.083945 -0.016978,0.1457524 0,0.1287536 -0.02568,0.2012389 -0.078471,0.2214969 -0.1252348,0.048054 -0.2025916,0.035465 -0.2682594,-0.04366 z M 3.7715536,6.2736533 C 3.5936081,6.1078722 3.6401183,5.7120335 3.8571189,5.5454254 3.9978422,5.4373817 4.2783853,5.4688266 4.4083953,5.6072159 4.7805702,6.003378 4.1687162,6.6436668 3.7715536,6.2736533 Z m 4.578872,-0.048345 c -0.281857,-0.294196 -0.117831,-0.7453416 0.269737,-0.7418948 0.286089,0.00254 0.450239,0.1899875 0.450239,0.5141267 0,0.3760023 -0.443531,0.516315 -0.719976,0.2277681 z"
       id="path3046"
       sodipodi:nodetypes="csscssscsscsssscssccssccscccscscsccsccccsscsssscssscscsssssscscssssscsscsscssscccsssscccssssccsscssscssscsssssscss" /></g></svg>
